HIERARCHY
ROOT Hips
{
	OFFSET 0.00000 0.00000 0.00000
	CHANNELS 6 Xposition Yposition Zposition Zrotation Yrotation Xrotation 
	JOINT LHipJoint
	{
		OFFSET 0 0 0
		CHANNELS 3 Zrotation Yrotation Xrotation
		JOINT LeftUpLeg
		{
			OFFSET 1.33213 -1.58186 0.78596
			CHANNELS 3 Zrotation Yrotation Xrotation
			JOINT LeftLeg
			{
				OFFSET 2.29717 -6.31144 0.00000
				CHANNELS 3 Zrotation Yrotation Xrotation
				JOINT LeftFoot
				{
					OFFSET 2.38430 -6.55082 0.00000
					CHANNELS 3 Zrotation Yrotation Xrotation
					JOINT LeftToeBase
					{
						OFFSET 0.11863 -0.32594 1.77568
						CHANNELS 3 Zrotation Yrotation Xrotation
						End Site
						{
							OFFSET 0.00000 -0.00000 0.91633
						}
					}
				}
			}
		}
	}
	JOINT RHipJoint
	{
		OFFSET 0 0 0
		CHANNELS 3 Zrotation Yrotation Xrotation
		JOINT RightUpLeg
		{
			OFFSET -1.41575 -1.58186 0.78596
			CHANNELS 3 Zrotation Yrotation Xrotation
			JOINT RightLeg
			{
				OFFSET -2.42012 -6.64922 0.00000
				CHANNELS 3 Zrotation Yrotation Xrotation
				JOINT RightFoot
				{
					OFFSET -2.47254 -6.79327 0.00000
					CHANNELS 3 Zrotation Yrotation Xrotation
					JOINT RightToeBase
					{
						OFFSET -0.15219 -0.41813 1.93430
						CHANNELS 3 Zrotation Yrotation Xrotation
						End Site
						{
							OFFSET -0.00000 -0.00000 0.99984
						}
					}
				}
			}
		}
	}
	JOINT LowerBack
	{
		OFFSET 0 0 0
		CHANNELS 3 Zrotation Yrotation Xrotation
		JOINT Spine
		{
			OFFSET -0.04717 2.09389 -0.14516
			CHANNELS 3 Zrotation Yrotation Xrotation
			JOINT Spine1
			{
				OFFSET 0.02825 2.09433 -0.11325
				CHANNELS 3 Zrotation Yrotation Xrotation
				JOINT Neck
				{
					OFFSET 0 0 0
					CHANNELS 3 Zrotation Yrotation Xrotation
					JOINT Neck1
					{
						OFFSET -0.01210 1.39029 0.12448
						CHANNELS 3 Zrotation Yrotation Xrotation
						JOINT Head
						{
							OFFSET 0.09492 1.38365 0.14559
							CHANNELS 3 Zrotation Yrotation Xrotation
							End Site
							{
								OFFSET 0.03402 1.40343 0.03708
							}
						}
					}
				}
				JOINT LeftShoulder
				{
					OFFSET 0 0 0
					CHANNELS 3 Zrotation Yrotation Xrotation
					JOINT LeftArm
					{
						OFFSET 2.83352 1.10671 -0.20481
						CHANNELS 3 Zrotation Yrotation Xrotation
						JOINT LeftForeArm
						{
							OFFSET 4.77195 -0.00000 -0.00000
							CHANNELS 3 Zrotation Yrotation Xrotation
							JOINT LeftHand
							{
								OFFSET 2.98444 -0.00000 0.00000
								CHANNELS 3 Zrotation Yrotation Xrotation
								JOINT LeftFingerBase
								{
									OFFSET 0 0 0
									CHANNELS 3 Zrotation Yrotation Xrotation
									JOINT LeftHandIndex1
									{
										OFFSET 0.99228 -0.00000 0.00000
										CHANNELS 3 Zrotation Yrotation Xrotation
										End Site
										{
											OFFSET 0.80001 -0.00000 0.00000
										}
									}
								}
								JOINT LThumb
								{
									OFFSET 0 0 0
									CHANNELS 3 Zrotation Yrotation Xrotation
									End Site
									{
										OFFSET 0.81222 -0.00000 0.81222
									}
								}
							}
						}
					}
				}
				JOINT RightShoulder
				{
					OFFSET 0 0 0
					CHANNELS 3 Zrotation Yrotation Xrotation
					JOINT RightArm
					{
						OFFSET -3.23760 1.11106 0.06723
						CHANNELS 3 Zrotation Yrotation Xrotation
						JOINT RightForeArm
						{
							OFFSET -4.62052 -0.00000 0.00000
							CHANNELS 3 Zrotation Yrotation Xrotation
							JOINT RightHand
							{
								OFFSET -2.95332 -0.00000 0.00000
								CHANNELS 3 Zrotation Yrotation Xrotation
								JOINT RightFingerBase
								{
									OFFSET 0 0 0
									CHANNELS 3 Zrotation Yrotation Xrotation
									JOINT RightHandIndex1
									{
										OFFSET -0.99096 -0.00000 0.00000
										CHANNELS 3 Zrotation Yrotation Xrotation
										End Site
										{
											OFFSET -0.79893 -0.00000 0.00000
										}
									}
								}
								JOINT RThumb
								{
									OFFSET 0 0 0
									CHANNELS 3 Zrotation Yrotation Xrotation
									End Site
									{
										OFFSET -0.81113 -0.00000 0.81113
									}
								}
							}
						}
					}
				}
			}
		}
	}
}
MOTION
Frames: 10
Frame Time: .0083333
-0.8826 16.4026 -5.4509 -172.7120 -59.6463 -176.7810 0.0000 0.0000 0.0000 -12.0393 -16.3731 -34.4416 6.5843 14.9716 47.2839 0.2253 4.6326 -11.8804 0.0796 -1.8196 -5.0075 0.0000 0.0000 0.0000 27.8104 -3.9561 -20.2095 -2.2159 -9.3019 26.7444 0.5372 23.4012 -12.4175 -3.2540 -11.0953 32.6020 -0.1983 -0.8805 -9.9930 1.4605 -1.2943 3.1729 1.4376 -0.6929 9.0411 -4.8919 -1.0510 -2.0592 7.7621 -2.2174 11.2225 3.0829 -1.0510 3.8033 -0.0000 -0.0000 0.0000 -89.1445 -4.8746 24.0893 18.2053 -28.4193 -4.6465 -0.0000 -0.0000 17.4051 8.3553 5.1974 0.7623 -7.1250 0.0000 -0.0000 -15.1109 34.8974 3.8609 -0.0000 -0.0000 0.0000 87.8283 6.7077 10.6274 -15.5996 24.9748 -3.4752 0.0000 0.0000 28.0589 -0.6008 -5.8091 0.0608 7.1250 -0.0000 -0.0000 21.4267 -35.0575 5.5598
-1.0389 16.3990 -5.5729 -172.9070 -59.3692 -176.5420 0.0000 0.0000 0.0000 -11.6657 -16.8174 -34.7696 5.5626 13.9907 43.2001 0.2385 3.8454 -11.4614 0.0179 -0.8634 -2.3729 0.0000 0.0000 0.0000 27.7646 -4.0259 -19.2542 -2.1598 -9.1914 26.3958 0.5259 23.7394 -12.8215 -3.2357 -11.0671 32.5065 -0.2657 -0.7537 -10.0902 1.3374 -1.1024 3.1466 1.3778 -0.5986 9.0620 -4.8926 -0.8625 -2.0728 7.4581 -1.9351 11.3649 3.0015 -0.9235 3.8281 -0.0000 -0.0000 0.0000 -89.4172 -5.2495 24.0635 18.5979 -28.9159 -4.8349 -0.0000 -0.0000 17.8251 8.3289 4.7181 0.6899 -7.1250 0.0000 -0.0000 -15.0401 34.4286 4.0190 -0.0000 -0.0000 0.0000 88.0005 7.0155 12.4217 -16.2916 25.9144 -3.7725 0.0000 0.0000 26.6630 -0.4969 -5.7483 0.0498 7.1250 -0.0000 -0.0000 21.4927 -34.9947 5.6144
-1.1975 16.3968 -5.6901 -172.8480 -59.0070 -176.4060 0.0000 0.0000 0.0000 -11.2486 -16.9762 -35.0901 4.5464 12.8540 38.8243 0.1909 3.4872 -10.2957 0.0725 -1.7376 -4.7809 0.0000 0.0000 0.0000 27.8452 -4.0666 -18.3708 -2.0834 -9.0376 25.9131 0.5387 24.0676 -13.0205 -3.2101 -11.0276 32.3729 -0.1331 -0.6322 -10.2938 1.2287 -0.9471 3.1042 1.2134 -0.5114 9.1258 -4.9893 -0.6581 -2.1623 7.2328 -1.6278 11.4867 2.9611 -0.7823 3.8598 -0.0000 -0.0000 0.0000 -89.5479 -5.5028 24.4319 19.0406 -29.4691 -5.0508 -0.0000 -0.0000 17.5197 8.5132 5.0113 0.7491 -7.1250 0.0000 -0.0000 -14.9478 34.7238 3.8820 -0.0000 -0.0000 0.0000 88.2116 7.4390 14.0996 -16.8539 26.6648 -4.0215 0.0000 0.0000 25.6285 -0.3017 -5.5680 0.0293 7.1250 -0.0000 -0.0000 21.5992 -34.8155 5.7471
-1.3577 16.3928 -5.8118 -172.7850 -58.5744 -176.4140 0.0000 0.0000 0.0000 -10.9503 -16.8401 -35.1551 3.6043 11.6143 34.3809 0.1317 2.9124 -8.5702 0.1339 -2.3585 -6.4975 0.0000 0.0000 0.0000 27.9504 -4.1822 -17.2291 -1.9731 -8.8098 25.2023 0.5160 24.1743 -13.2961 -3.0717 -10.8102 31.6425 -0.0387 -0.4438 -10.3892 1.0988 -0.6959 3.1069 1.0667 -0.3796 9.1750 -5.0751 -0.5258 -2.3516 7.1298 -1.4279 11.6155 2.9523 -0.6865 3.9179 -0.0000 -0.0000 0.0000 -89.5863 -5.7628 24.9197 19.3203 -29.8147 -5.1891 -0.0000 -0.0000 17.0252 8.7418 5.4444 0.8359 -7.1250 0.0000 -0.0000 -14.8469 35.1583 3.6921 -0.0000 -0.0000 0.0000 88.5486 7.8377 15.4177 -17.3503 27.3173 -4.2468 0.0000 0.0000 24.8619 -0.2205 -5.3924 0.0207 7.1250 -0.0000 -0.0000 21.6178 -34.6476 5.8477
-1.5221 16.3905 -5.9410 -172.7880 -58.0872 -176.4910 0.0000 0.0000 0.0000 -10.7687 -16.4400 -34.9672 2.7702 10.3134 29.9977 0.0807 1.9844 -6.4837 0.1070 -2.1090 -5.8069 0.0000 0.0000 0.0000 28.0369 -4.3969 -15.8728 -1.8492 -8.5446 24.3810 0.4732 24.1930 -13.6450 -2.8918 -10.5178 30.6705 -0.0701 -0.2380 -10.4148 0.9741 -0.4043 3.1380 1.0044 -0.2360 9.2170 -4.8698 -0.3837 -2.4594 6.8335 -1.2097 11.6645 2.8360 -0.5803 3.9355 0.0000 -0.0000 0.0000 -89.7259 -5.9970 24.9704 19.3707 -29.8767 -5.2142 -0.0000 -0.0000 17.0023 8.8282 5.5496 0.8605 -7.1250 0.0000 -0.0000 -14.7973 35.2655 3.6392 0.0000 -0.0000 0.0000 88.8902 8.1738 16.6724 -17.7759 27.8693 -4.4440 0.0000 0.0000 24.1315 -0.3784 -5.3655 0.0354 7.1250 -0.0000 -0.0000 21.4877 -34.6317 5.8168
-1.6919 16.3887 -6.0699 -172.6880 -57.5256 -176.6300 0.0000 0.0000 0.0000 -10.5972 -15.8058 -34.7609 2.0705 9.0115 25.8312 0.0441 0.9050 -4.4097 0.0843 -1.8733 -5.1556 0.0000 0.0000 0.0000 28.1450 -4.3796 -14.4046 -1.7239 -8.2657 23.5241 0.4141 24.0853 -14.0041 -2.7704 -10.3138 29.9990 -0.1090 -0.1054 -10.5127 0.9451 -0.2190 3.1613 1.0295 -0.1479 9.2962 -4.8255 -0.1500 -2.4150 6.4858 -0.8453 11.5531 2.7357 -0.4132 3.8723 0.0000 -0.0000 0.0000 -89.9458 -6.0484 24.7346 19.4077 -29.9222 -5.2327 -0.0000 -0.0000 17.0316 8.8467 5.7581 0.8946 -7.1250 0.0000 -0.0000 -14.8232 35.4704 3.5696 0.0000 -0.0000 0.0000 89.1513 8.5345 17.9317 -18.0659 28.2414 -4.5804 0.0000 0.0000 23.8343 -0.4759 -5.2225 0.0433 7.1250 -0.0000 -0.0000 21.3755 -34.5041 5.8537
-1.8722 16.3858 -6.1960 -172.8780 -57.0236 -176.6160 0.0000 0.0000 0.0000 -10.7545 -15.1120 -34.4071 1.5293 7.8078 22.1319 0.0244 -0.1918 -2.8871 0.0832 -1.8602 -5.1195 0.0000 0.0000 0.0000 28.0125 -4.4129 -12.7908 -1.5914 -7.9575 22.5850 0.3847 23.9580 -14.1190 -2.7757 -10.3228 30.0283 -0.2031 -0.0154 -10.5819 0.8367 -0.0751 3.1972 0.9938 -0.0802 9.3730 -5.0715 0.0825 -2.3622 6.3833 -0.4890 11.3816 2.7580 -0.2504 3.7914 -0.0000 0.0000 0.0000 -89.9407 -5.9505 24.6292 19.4097 -29.9246 -5.2337 -0.0000 -0.0000 16.9393 8.6546 6.3244 0.9606 -7.1250 0.0000 -0.0000 -15.0935 36.0129 3.4321 -0.0000 0.0000 0.0000 89.5530 8.7979 18.9024 -18.2468 28.4720 -4.6663 0.0000 0.0000 24.0105 -0.3759 -4.8429 0.0317 7.1250 -0.0000 -0.0000 21.3587 -34.1451 6.0487
-2.0569 16.3753 -6.3234 -172.5120 -56.5373 -177.0040 0.0000 0.0000 0.0000 -10.6876 -14.2062 -34.3064 1.1368 6.7712 19.0392 0.0078 -1.2215 -1.6695 0.0846 -1.8765 -5.1644 0.0000 0.0000 0.0000 28.1968 -4.3795 -11.2502 -1.4717 -7.6659 21.7039 0.3892 23.8072 -13.9562 -2.9165 -10.5587 30.8056 0.1389 0.2101 -10.6848 0.6747 0.1935 3.1676 0.6780 0.0754 9.3970 -5.1822 0.1969 -2.3668 6.4491 -0.3276 11.3130 2.8024 -0.1711 3.7618 0.0000 0.0000 0.0000 -89.6874 -5.7898 24.6795 19.2529 -29.7317 -5.1557 -0.0000 -0.0000 17.0491 8.5478 6.8780 1.0312 -7.1250 0.0000 -0.0000 -15.2963 36.5462 3.2750 0.0000 0.0000 0.0000 90.0568 8.8455 19.7564 -18.3968 28.6623 -4.7380 0.0000 0.0000 23.8941 -0.3451 -4.5368 0.0273 7.1250 -0.0000 -0.0000 21.3074 -33.8583 6.1917
-2.2459 16.3762 -6.4544 -172.6930 -56.0351 -176.9670 0.0000 0.0000 0.0000 -11.1775 -13.0170 -34.3085 0.8735 5.9589 16.6651 -0.0100 -2.1855 -0.5610 0.2195 -3.0159 -8.3231 0.0000 0.0000 0.0000 28.0590 -4.5019 -9.7403 -1.3674 -7.4008 20.9085 0.3574 23.6569 -14.0732 -2.8890 -10.5132 30.6551 0.0698 0.3889 -10.7974 0.4858 0.4614 3.1398 0.5660 0.2077 9.4306 -5.1330 0.2744 -2.4543 6.3338 -0.2113 11.3758 2.7640 -0.1151 3.7887 0.0000 -0.0000 0.0000 -89.6090 -5.6156 24.0967 18.9350 -29.3378 -4.9990 -0.0000 -0.0000 17.7882 8.2867 6.4371 0.9355 -7.1250 0.0000 -0.0000 -15.4167 36.1014 3.4756 0.0000 -0.0000 0.0000 90.4288 8.7539 20.6725 -18.5803 28.8938 -4.8264 0.0000 0.0000 23.7066 -0.2451 -4.4399 0.0190 7.1250 -0.0000 -0.0000 21.3613 -33.7627 6.2626
-2.4423 16.3589 -6.5832 -173.0140 -55.5351 -176.7830 0.0000 0.0000 0.0000 -11.7936 -11.9667 -34.3151 0.7213 5.4269 15.1304 -0.0244 -2.9184 0.0828 0.3873 -3.9964 -11.0665 0.0000 0.0000 0.0000 27.8232 -4.5837 -8.3145 -1.2894 -7.1950 20.2945 0.2665 23.4473 -14.5923 -2.6645 -10.1310 29.4021 -0.1342 0.4909 -10.9759 0.3420 0.6419 3.1092 0.5631 0.2881 9.4994 -5.1314 0.4041 -2.5473 6.1792 -0.0089 11.3463 2.7241 -0.0188 3.7842 0.0000 -0.0000 0.0000 -89.5800 -5.3744 23.2172 18.5615 -28.8702 -4.8173 -0.0000 -0.0000 18.6213 7.6776 5.4874 0.7386 -7.1250 0.0000 -0.0000 -15.7150 35.1448 3.9271 0.0000 -0.0000 0.0000 90.7087 8.5105 21.6739 -18.8252 29.2009 -4.9453 0.0000 0.0000 23.6193 -0.0330 -4.4331 0.0025 7.1250 -0.0000 -0.0000 21.5238 -33.7451 6.3264
